<svg xmlns="http://www.w3.org/2000/svg" xmlns:xlink="http://www.w3.org/1999/xlink" width="500" zoomAndPan="magnify" viewBox="0 0 375 374.999991" height="500" preserveAspectRatio="xMidYMid meet" version="1.0"><defs><clipPath id="id1"><path d="M 125 119.402344 L 268 119.402344 L 268 120.902344 L 125 120.902344 Z M 125 119.402344 " clip-rule="nonzero"/></clipPath><clipPath id="id2"><path d="M 254.75 147 L 256.25 147 L 256.25 290 L 254.75 290 Z M 254.75 147 " clip-rule="nonzero"/></clipPath><clipPath id="id3"><path d="M 172 37 L 337 37 L 337 202 L 172 202 Z M 172 37 " clip-rule="nonzero"/></clipPath><clipPath id="id4"><path d="M 172.871094 121.734375 L 253.074219 37.582031 L 336.683594 117.269531 L 256.476562 201.421875 Z M 172.871094 121.734375 " clip-rule="nonzero"/></clipPath><clipPath id="id5"><path d="M 94.183594 129 L 95.683594 129 L 95.683594 273 L 94.183594 273 Z M 94.183594 129 " clip-rule="nonzero"/></clipPath><clipPath id="id6"><path d="M 37.5 61.738281 L 153.75 61.738281 L 153.75 177.238281 L 37.5 177.238281 Z M 37.5 61.738281 " clip-rule="nonzero"/></clipPath><clipPath id="id7"><path d="M 116 275.847656 L 259 275.847656 L 259 277.347656 L 116 277.347656 Z M 116 275.847656 " clip-rule="nonzero"/></clipPath><clipPath id="id8"><path d="M 196.566406 218.1875 L 312.816406 218.1875 L 312.816406 333.6875 L 196.566406 333.6875 Z M 196.566406 218.1875 " clip-rule="nonzero"/></clipPath><clipPath id="id9"><path d="M 37.5 218.1875 L 153.75 218.1875 L 153.75 333.6875 L 37.5 333.6875 Z M 37.5 218.1875 " clip-rule="nonzero"/></clipPath></defs><g clip-path="url(#id1)"><path fill="#000000" d="M 267.722656 120.890625 L 125.40625 120.890625 L 125.40625 119.394531 L 267.722656 119.394531 L 267.722656 120.890625 " fill-opacity="1" fill-rule="nonzero"/></g><g clip-path="url(#id2)"><path fill="#000000" d="M 254.761719 289.347656 L 254.761719 147.03125 L 256.253906 147.03125 L 256.253906 289.347656 L 254.761719 289.347656 " fill-opacity="1" fill-rule="nonzero"/></g><g clip-path="url(#id3)"><g clip-path="url(#id4)"><path fill="#42bfdd" d="M 172.875 121.730469 L 253.074219 37.585938 L 336.679688 117.273438 L 256.480469 201.417969 L 172.875 121.730469 " fill-opacity="1" fill-rule="nonzero"/></g></g><g clip-path="url(#id5)"><path fill="#000000" d="M 94.195312 272.007812 L 94.195312 129.691406 L 95.6875 129.691406 L 95.6875 272.007812 L 94.195312 272.007812 " fill-opacity="1" fill-rule="nonzero"/></g><g clip-path="url(#id6)"><path fill="#084b80" d="M 37.503906 61.738281 L 153.746094 61.738281 L 153.746094 177.238281 L 37.503906 177.238281 L 37.503906 61.738281 " fill-opacity="1" fill-rule="nonzero"/></g><g clip-path="url(#id7)"><path fill="#000000" d="M 258.660156 277.339844 L 116.339844 277.339844 L 116.339844 275.84375 L 258.660156 275.84375 L 258.660156 277.339844 " fill-opacity="1" fill-rule="nonzero"/></g><g clip-path="url(#id8)"><path fill="#f06543" d="M 196.570312 218.1875 L 312.8125 218.1875 L 312.8125 333.6875 L 196.570312 333.6875 L 196.570312 218.1875 " fill-opacity="1" fill-rule="nonzero"/></g><g clip-path="url(#id9)"><path fill="#bbe6e4" d="M 95.625 218.1875 C 63.527344 218.1875 37.503906 244.042969 37.503906 275.9375 C 37.503906 307.832031 63.527344 333.6875 95.625 333.6875 C 127.722656 333.6875 153.746094 307.832031 153.746094 275.9375 C 153.746094 244.042969 127.722656 218.1875 95.625 218.1875 " fill-opacity="1" fill-rule="nonzero"/></g></svg>