<svg xmlns="http://www.w3.org/2000/svg" xmlns:xlink="http://www.w3.org/1999/xlink" width="500" zoomAndPan="magnify" viewBox="0 0 375 374.999991" height="500" preserveAspectRatio="xMidYMid meet" version="1.0"><defs><g/><clipPath id="id1"><path d="M 37.5 37.5 L 187.5 37.5 L 187.5 337.5 L 37.5 337.5 Z M 37.5 37.5 " clip-rule="nonzero"/></clipPath><clipPath id="id2"><path d="M 187.5 37.5 L 337.5 37.5 L 337.5 337.5 L 187.5 337.5 Z M 187.5 37.5 " clip-rule="nonzero"/></clipPath><clipPath id="id3"><path d="M 187.5 45 L 190.5 45 L 190.5 330 L 187.5 330 Z M 187.5 45 " clip-rule="nonzero"/></clipPath></defs><g clip-path="url(#id1)"><path fill="#000000" d="M 37.5 37.5 L 187.5 37.5 L 187.5 337.5 L 37.5 337.5 L 37.5 37.5 " fill-opacity="1" fill-rule="nonzero"/></g><g clip-path="url(#id2)"><path fill="#000000" d="M 187.5 37.5 L 337.5 37.5 L 337.5 337.5 L 187.5 337.5 L 187.5 37.5 " fill-opacity="1" fill-rule="nonzero"/></g><g clip-path="url(#id3)"><path fill="#ffffff" d="M 187.523438 329.816406 L 187.523438 45.183594 L 190.507812 45.183594 L 190.507812 329.816406 L 187.523438 329.816406 " fill-opacity="1" fill-rule="nonzero"/></g><g fill="#ffffff" fill-opacity="1"><g transform="translate(55.97461, 224.624985)"><g><path d="M 49.609375 -6.625 L 49.609375 0 L 12.1875 0 L 12.1875 -6.625 L 27.140625 -6.625 L 27.140625 -54.234375 C 27.140625 -55.671875 27.191406 -57.117188 27.296875 -58.578125 L 14.859375 -47.90625 C 14.441406 -47.550781 14.019531 -47.332031 13.59375 -47.25 C 13.175781 -47.164062 12.785156 -47.15625 12.421875 -47.21875 C 12.066406 -47.289062 11.734375 -47.421875 11.421875 -47.609375 C 11.117188 -47.804688 10.882812 -48.019531 10.71875 -48.25 L 8 -52 L 28.796875 -69.984375 L 35.875 -69.984375 L 35.875 -6.625 Z M 49.609375 -6.625 "/></g></g></g><g fill="#ffffff" fill-opacity="1"><g transform="translate(112.504117, 224.624985)"><g><path d="M 53.609375 -34.890625 C 53.609375 -28.785156 52.945312 -23.5 51.625 -19.03125 C 50.3125 -14.5625 48.519531 -10.863281 46.25 -7.9375 C 43.976562 -5.019531 41.289062 -2.84375 38.1875 -1.40625 C 35.082031 0.0195312 31.757812 0.734375 28.21875 0.734375 C 24.644531 0.734375 21.320312 0.0195312 18.25 -1.40625 C 15.175781 -2.84375 12.503906 -5.019531 10.234375 -7.9375 C 7.960938 -10.863281 6.175781 -14.5625 4.875 -19.03125 C 3.570312 -23.5 2.921875 -28.785156 2.921875 -34.890625 C 2.921875 -41.003906 3.570312 -46.300781 4.875 -50.78125 C 6.175781 -55.257812 7.960938 -58.96875 10.234375 -61.90625 C 12.503906 -64.851562 15.175781 -67.039062 18.25 -68.46875 C 21.320312 -69.894531 24.644531 -70.609375 28.21875 -70.609375 C 31.757812 -70.609375 35.082031 -69.894531 38.1875 -68.46875 C 41.289062 -67.039062 43.976562 -64.851562 46.25 -61.90625 C 48.519531 -58.96875 50.3125 -55.257812 51.625 -50.78125 C 52.945312 -46.300781 53.609375 -41.003906 53.609375 -34.890625 Z M 44.59375 -34.890625 C 44.59375 -40.222656 44.144531 -44.695312 43.25 -48.3125 C 42.351562 -51.9375 41.148438 -54.851562 39.640625 -57.0625 C 38.128906 -59.269531 36.382812 -60.851562 34.40625 -61.8125 C 32.425781 -62.769531 30.363281 -63.25 28.21875 -63.25 C 26.070312 -63.25 24.007812 -62.769531 22.03125 -61.8125 C 20.050781 -60.851562 18.3125 -59.269531 16.8125 -57.0625 C 15.320312 -54.851562 14.128906 -51.9375 13.234375 -48.3125 C 12.335938 -44.695312 11.890625 -40.222656 11.890625 -34.890625 C 11.890625 -29.566406 12.335938 -25.097656 13.234375 -21.484375 C 14.128906 -17.878906 15.320312 -14.972656 16.8125 -12.765625 C 18.3125 -10.554688 20.050781 -8.972656 22.03125 -8.015625 C 24.007812 -7.054688 26.070312 -6.578125 28.21875 -6.578125 C 30.363281 -6.578125 32.425781 -7.054688 34.40625 -8.015625 C 36.382812 -8.972656 38.128906 -10.554688 39.640625 -12.765625 C 41.148438 -14.972656 42.351562 -17.878906 43.25 -21.484375 C 44.144531 -25.097656 44.59375 -29.566406 44.59375 -34.890625 Z M 44.59375 -34.890625 "/></g></g></g><g fill="#ffffff" fill-opacity="1"><g transform="translate(209.26171, 224.624985)"><g><path d="M 53.609375 -34.890625 C 53.609375 -28.785156 52.945312 -23.5 51.625 -19.03125 C 50.3125 -14.5625 48.519531 -10.863281 46.25 -7.9375 C 43.976562 -5.019531 41.289062 -2.84375 38.1875 -1.40625 C 35.082031 0.0195312 31.757812 0.734375 28.21875 0.734375 C 24.644531 0.734375 21.320312 0.0195312 18.25 -1.40625 C 15.175781 -2.84375 12.503906 -5.019531 10.234375 -7.9375 C 7.960938 -10.863281 6.175781 -14.5625 4.875 -19.03125 C 3.570312 -23.5 2.921875 -28.785156 2.921875 -34.890625 C 2.921875 -41.003906 3.570312 -46.300781 4.875 -50.78125 C 6.175781 -55.257812 7.960938 -58.96875 10.234375 -61.90625 C 12.503906 -64.851562 15.175781 -67.039062 18.25 -68.46875 C 21.320312 -69.894531 24.644531 -70.609375 28.21875 -70.609375 C 31.757812 -70.609375 35.082031 -69.894531 38.1875 -68.46875 C 41.289062 -67.039062 43.976562 -64.851562 46.25 -61.90625 C 48.519531 -58.96875 50.3125 -55.257812 51.625 -50.78125 C 52.945312 -46.300781 53.609375 -41.003906 53.609375 -34.890625 Z M 44.59375 -34.890625 C 44.59375 -40.222656 44.144531 -44.695312 43.25 -48.3125 C 42.351562 -51.9375 41.148438 -54.851562 39.640625 -57.0625 C 38.128906 -59.269531 36.382812 -60.851562 34.40625 -61.8125 C 32.425781 -62.769531 30.363281 -63.25 28.21875 -63.25 C 26.070312 -63.25 24.007812 -62.769531 22.03125 -61.8125 C 20.050781 -60.851562 18.3125 -59.269531 16.8125 -57.0625 C 15.320312 -54.851562 14.128906 -51.9375 13.234375 -48.3125 C 12.335938 -44.695312 11.890625 -40.222656 11.890625 -34.890625 C 11.890625 -29.566406 12.335938 -25.097656 13.234375 -21.484375 C 14.128906 -17.878906 15.320312 -14.972656 16.8125 -12.765625 C 18.3125 -10.554688 20.050781 -8.972656 22.03125 -8.015625 C 24.007812 -7.054688 26.070312 -6.578125 28.21875 -6.578125 C 30.363281 -6.578125 32.425781 -7.054688 34.40625 -8.015625 C 36.382812 -8.972656 38.128906 -10.554688 39.640625 -12.765625 C 41.148438 -14.972656 42.351562 -17.878906 43.25 -21.484375 C 44.144531 -25.097656 44.59375 -29.566406 44.59375 -34.890625 Z M 44.59375 -34.890625 "/></g></g></g><g fill="#ffffff" fill-opacity="1"><g transform="translate(265.791217, 224.624985)"><g><path d="M 35.578125 -25.203125 L 35.578125 -54 C 35.578125 -54.84375 35.609375 -55.765625 35.671875 -56.765625 C 35.734375 -57.773438 35.832031 -58.800781 35.96875 -59.84375 L 10.53125 -25.203125 Z M 53.75 -25.203125 L 53.75 -20.21875 C 53.75 -19.695312 53.59375 -19.257812 53.28125 -18.90625 C 52.976562 -18.550781 52.503906 -18.375 51.859375 -18.375 L 43.171875 -18.375 L 43.171875 0 L 35.578125 0 L 35.578125 -18.375 L 4.578125 -18.375 C 3.929688 -18.375 3.367188 -18.5625 2.890625 -18.9375 C 2.421875 -19.3125 2.125 -19.773438 2 -20.328125 L 1.125 -24.75 L 35.09375 -69.84375 L 43.171875 -69.84375 L 43.171875 -25.203125 Z M 53.75 -25.203125 "/></g></g></g><g fill="#ffffff" fill-opacity="1"><g transform="translate(302.226546, 318.508754)"><g><path d="M 5.484375 -3.34375 L 4.671875 -5.75 C 4.609375 -5.90625 4.539062 -6.082031 4.46875 -6.28125 C 4.40625 -6.488281 4.335938 -6.710938 4.265625 -6.953125 C 4.210938 -6.710938 4.148438 -6.488281 4.078125 -6.28125 C 4.003906 -6.070312 3.941406 -5.890625 3.890625 -5.734375 L 3.078125 -3.34375 Z M 8.703125 0 L 7.140625 0 C 6.960938 0 6.816406 -0.0390625 6.703125 -0.125 C 6.597656 -0.207031 6.515625 -0.3125 6.453125 -0.4375 L 5.9375 -1.96875 L 2.609375 -1.96875 L 2.09375 -0.4375 C 2.050781 -0.320312 1.972656 -0.21875 1.859375 -0.125 C 1.742188 -0.0390625 1.601562 0 1.4375 0 L -0.15625 0 L 3.234375 -8.765625 L 5.3125 -8.765625 Z M 8.703125 0 "/></g></g></g><g fill="#ffffff" fill-opacity="1"><g transform="translate(310.776581, 318.508754)"><g><path d="M 10.703125 -8.765625 L 10.703125 0 L 8.90625 0 L 8.90625 -5.046875 C 8.90625 -5.160156 8.90625 -5.285156 8.90625 -5.421875 C 8.914062 -5.554688 8.929688 -5.691406 8.953125 -5.828125 L 6.625 -1.328125 C 6.550781 -1.191406 6.453125 -1.085938 6.328125 -1.015625 C 6.203125 -0.941406 6.0625 -0.90625 5.90625 -0.90625 L 5.640625 -0.90625 C 5.484375 -0.90625 5.34375 -0.941406 5.21875 -1.015625 C 5.09375 -1.085938 4.992188 -1.191406 4.921875 -1.328125 L 2.59375 -5.84375 C 2.601562 -5.695312 2.613281 -5.554688 2.625 -5.421875 C 2.632812 -5.285156 2.640625 -5.160156 2.640625 -5.046875 L 2.640625 0 L 0.84375 0 L 0.84375 -8.765625 L 2.40625 -8.765625 C 2.488281 -8.765625 2.5625 -8.757812 2.625 -8.75 C 2.695312 -8.75 2.757812 -8.738281 2.8125 -8.71875 C 2.863281 -8.695312 2.910156 -8.664062 2.953125 -8.625 C 2.992188 -8.582031 3.035156 -8.523438 3.078125 -8.453125 L 5.328125 -4 C 5.410156 -3.851562 5.488281 -3.695312 5.5625 -3.53125 C 5.632812 -3.363281 5.707031 -3.195312 5.78125 -3.03125 C 5.84375 -3.207031 5.910156 -3.378906 5.984375 -3.546875 C 6.054688 -3.710938 6.132812 -3.875 6.21875 -4.03125 L 8.46875 -8.453125 C 8.507812 -8.523438 8.550781 -8.582031 8.59375 -8.625 C 8.632812 -8.664062 8.679688 -8.695312 8.734375 -8.71875 C 8.785156 -8.738281 8.84375 -8.75 8.90625 -8.75 C 8.976562 -8.757812 9.0625 -8.765625 9.15625 -8.765625 Z M 10.703125 -8.765625 "/></g></g></g><g fill="#ffffff" fill-opacity="1"><g transform="translate(157.124561, 257.545974)"><g><path d="M 7.140625 -7.15625 L 4.6875 -7.15625 L 4.6875 0 L 2.640625 0 L 2.640625 -7.15625 L 0.1875 -7.15625 L 0.1875 -8.765625 L 7.140625 -8.765625 Z M 7.140625 -7.15625 "/></g></g></g><g fill="#ffffff" fill-opacity="1"><g transform="translate(164.44801, 257.545974)"><g><path d="M 4.5 -1.609375 C 4.78125 -1.609375 5.023438 -1.648438 5.234375 -1.734375 C 5.453125 -1.828125 5.632812 -1.957031 5.78125 -2.125 C 5.925781 -2.289062 6.035156 -2.492188 6.109375 -2.734375 C 6.191406 -2.984375 6.234375 -3.265625 6.234375 -3.578125 L 6.234375 -8.765625 L 8.265625 -8.765625 L 8.265625 -3.578125 C 8.265625 -3.035156 8.175781 -2.539062 8 -2.09375 C 7.832031 -1.644531 7.585938 -1.253906 7.265625 -0.921875 C 6.941406 -0.597656 6.546875 -0.347656 6.078125 -0.171875 C 5.609375 0.00390625 5.082031 0.09375 4.5 0.09375 C 3.914062 0.09375 3.390625 0.00390625 2.921875 -0.171875 C 2.460938 -0.347656 2.066406 -0.597656 1.734375 -0.921875 C 1.410156 -1.253906 1.160156 -1.644531 0.984375 -2.09375 C 0.816406 -2.539062 0.734375 -3.035156 0.734375 -3.578125 L 0.734375 -8.765625 L 2.765625 -8.765625 L 2.765625 -3.578125 C 2.765625 -3.265625 2.800781 -2.988281 2.875 -2.75 C 2.957031 -2.507812 3.070312 -2.300781 3.21875 -2.125 C 3.375 -1.957031 3.554688 -1.828125 3.765625 -1.734375 C 3.984375 -1.648438 4.226562 -1.609375 4.5 -1.609375 Z M 4.5 -1.609375 "/></g></g></g><g fill="#ffffff" fill-opacity="1"><g transform="translate(173.455013, 257.545974)"><g><path d="M 2.890625 -7.203125 L 2.890625 -5.15625 L 5.65625 -5.15625 L 5.65625 -3.65625 L 2.890625 -3.65625 L 2.890625 -1.5625 L 6.484375 -1.5625 L 6.484375 0 L 0.84375 0 L 0.84375 -8.765625 L 6.484375 -8.765625 L 6.484375 -7.203125 Z M 2.890625 -7.203125 "/></g></g></g><g fill="#ffffff" fill-opacity="1"><g transform="translate(180.342253, 257.545974)"><g/></g></g><g fill="#ffffff" fill-opacity="1"><g transform="translate(183.120111, 257.545974)"><g/></g></g><g fill="#ffffff" fill-opacity="1"><g transform="translate(185.897969, 257.545974)"><g/></g></g><g fill="#ffffff" fill-opacity="1"><g transform="translate(188.675826, 257.545974)"><g/></g></g><g fill="#ffffff" fill-opacity="1"><g transform="translate(191.451381, 257.545974)"><g><path d="M 5.6875 -6.984375 C 5.625 -6.890625 5.5625 -6.816406 5.5 -6.765625 C 5.4375 -6.710938 5.351562 -6.6875 5.25 -6.6875 C 5.15625 -6.6875 5.050781 -6.71875 4.9375 -6.78125 C 4.832031 -6.84375 4.710938 -6.910156 4.578125 -6.984375 C 4.453125 -7.054688 4.300781 -7.117188 4.125 -7.171875 C 3.957031 -7.234375 3.757812 -7.265625 3.53125 -7.265625 C 3.15625 -7.265625 2.875 -7.179688 2.6875 -7.015625 C 2.5 -6.859375 2.40625 -6.640625 2.40625 -6.359375 C 2.40625 -6.179688 2.460938 -6.035156 2.578125 -5.921875 C 2.691406 -5.804688 2.835938 -5.703125 3.015625 -5.609375 C 3.203125 -5.523438 3.410156 -5.445312 3.640625 -5.375 C 3.878906 -5.3125 4.117188 -5.234375 4.359375 -5.140625 C 4.609375 -5.054688 4.847656 -4.957031 5.078125 -4.84375 C 5.316406 -4.726562 5.523438 -4.578125 5.703125 -4.390625 C 5.890625 -4.210938 6.035156 -3.992188 6.140625 -3.734375 C 6.253906 -3.484375 6.3125 -3.175781 6.3125 -2.8125 C 6.3125 -2.40625 6.238281 -2.023438 6.09375 -1.671875 C 5.957031 -1.316406 5.753906 -1.007812 5.484375 -0.75 C 5.222656 -0.488281 4.894531 -0.28125 4.5 -0.125 C 4.113281 0.0195312 3.671875 0.09375 3.171875 0.09375 C 2.898438 0.09375 2.625 0.0625 2.34375 0 C 2.0625 -0.0507812 1.785156 -0.125 1.515625 -0.21875 C 1.253906 -0.320312 1.003906 -0.441406 0.765625 -0.578125 C 0.535156 -0.722656 0.335938 -0.882812 0.171875 -1.0625 L 0.765625 -2.015625 C 0.816406 -2.078125 0.878906 -2.128906 0.953125 -2.171875 C 1.035156 -2.222656 1.125 -2.25 1.21875 -2.25 C 1.332031 -2.25 1.453125 -2.207031 1.578125 -2.125 C 1.703125 -2.050781 1.835938 -1.96875 1.984375 -1.875 C 2.140625 -1.789062 2.316406 -1.707031 2.515625 -1.625 C 2.722656 -1.550781 2.960938 -1.515625 3.234375 -1.515625 C 3.609375 -1.515625 3.894531 -1.59375 4.09375 -1.75 C 4.300781 -1.914062 4.40625 -2.175781 4.40625 -2.53125 C 4.40625 -2.738281 4.347656 -2.90625 4.234375 -3.03125 C 4.117188 -3.15625 3.96875 -3.257812 3.78125 -3.34375 C 3.601562 -3.4375 3.398438 -3.515625 3.171875 -3.578125 C 2.941406 -3.640625 2.703125 -3.707031 2.453125 -3.78125 C 2.210938 -3.863281 1.972656 -3.960938 1.734375 -4.078125 C 1.503906 -4.191406 1.296875 -4.34375 1.109375 -4.53125 C 0.929688 -4.71875 0.785156 -4.945312 0.671875 -5.21875 C 0.554688 -5.5 0.5 -5.84375 0.5 -6.25 C 0.5 -6.582031 0.566406 -6.90625 0.703125 -7.21875 C 0.835938 -7.53125 1.03125 -7.804688 1.28125 -8.046875 C 1.539062 -8.296875 1.859375 -8.492188 2.234375 -8.640625 C 2.609375 -8.785156 3.035156 -8.859375 3.515625 -8.859375 C 3.785156 -8.859375 4.046875 -8.835938 4.296875 -8.796875 C 4.554688 -8.753906 4.796875 -8.691406 5.015625 -8.609375 C 5.242188 -8.523438 5.457031 -8.425781 5.65625 -8.3125 C 5.863281 -8.195312 6.046875 -8.066406 6.203125 -7.921875 Z M 5.6875 -6.984375 "/></g></g></g><g fill="#ffffff" fill-opacity="1"><g transform="translate(198.113438, 257.545974)"><g><path d="M 8.796875 -4.390625 C 8.796875 -3.753906 8.6875 -3.164062 8.46875 -2.625 C 8.25 -2.09375 7.941406 -1.628906 7.546875 -1.234375 C 7.148438 -0.847656 6.671875 -0.546875 6.109375 -0.328125 C 5.554688 -0.109375 4.9375 0 4.25 0 L 0.84375 0 L 0.84375 -8.765625 L 4.25 -8.765625 C 4.9375 -8.765625 5.554688 -8.65625 6.109375 -8.4375 C 6.671875 -8.21875 7.148438 -7.910156 7.546875 -7.515625 C 7.941406 -7.128906 8.25 -6.664062 8.46875 -6.125 C 8.6875 -5.59375 8.796875 -5.015625 8.796875 -4.390625 Z M 6.71875 -4.390625 C 6.71875 -4.816406 6.660156 -5.203125 6.546875 -5.546875 C 6.429688 -5.898438 6.269531 -6.195312 6.0625 -6.4375 C 5.851562 -6.6875 5.597656 -6.875 5.296875 -7 C 4.992188 -7.132812 4.644531 -7.203125 4.25 -7.203125 L 2.890625 -7.203125 L 2.890625 -1.5625 L 4.25 -1.5625 C 4.644531 -1.5625 4.992188 -1.625 5.296875 -1.75 C 5.597656 -1.882812 5.851562 -2.070312 6.0625 -2.3125 C 6.269531 -2.5625 6.429688 -2.859375 6.546875 -3.203125 C 6.660156 -3.554688 6.71875 -3.953125 6.71875 -4.390625 Z M 6.71875 -4.390625 "/></g></g></g><g fill="#ffffff" fill-opacity="1"><g transform="translate(207.264747, 257.545974)"><g><path d="M 5.484375 -3.34375 L 4.671875 -5.75 C 4.609375 -5.90625 4.539062 -6.082031 4.46875 -6.28125 C 4.40625 -6.488281 4.335938 -6.710938 4.265625 -6.953125 C 4.210938 -6.710938 4.148438 -6.488281 4.078125 -6.28125 C 4.003906 -6.070312 3.941406 -5.890625 3.890625 -5.734375 L 3.078125 -3.34375 Z M 8.703125 0 L 7.140625 0 C 6.960938 0 6.816406 -0.0390625 6.703125 -0.125 C 6.597656 -0.207031 6.515625 -0.3125 6.453125 -0.4375 L 5.9375 -1.96875 L 2.609375 -1.96875 L 2.09375 -0.4375 C 2.050781 -0.320312 1.972656 -0.21875 1.859375 -0.125 C 1.742188 -0.0390625 1.601562 0 1.4375 0 L -0.15625 0 L 3.234375 -8.765625 L 5.3125 -8.765625 Z M 8.703125 0 "/></g></g></g><g fill="#ffffff" fill-opacity="1"><g transform="translate(215.814782, 257.545974)"><g><path d="M 5.046875 -3.328125 L 5.046875 0 L 3.015625 0 L 3.015625 -3.328125 L -0.15625 -8.765625 L 1.625 -8.765625 C 1.800781 -8.765625 1.941406 -8.722656 2.046875 -8.640625 C 2.148438 -8.554688 2.234375 -8.453125 2.296875 -8.328125 L 3.546875 -5.78125 C 3.648438 -5.570312 3.742188 -5.378906 3.828125 -5.203125 C 3.910156 -5.035156 3.984375 -4.867188 4.046875 -4.703125 C 4.109375 -4.867188 4.175781 -5.039062 4.25 -5.21875 C 4.332031 -5.394531 4.425781 -5.582031 4.53125 -5.78125 L 5.75 -8.328125 C 5.78125 -8.378906 5.816406 -8.429688 5.859375 -8.484375 C 5.898438 -8.535156 5.945312 -8.582031 6 -8.625 C 6.050781 -8.664062 6.113281 -8.695312 6.1875 -8.71875 C 6.257812 -8.75 6.335938 -8.765625 6.421875 -8.765625 L 8.21875 -8.765625 Z M 5.046875 -3.328125 "/></g></g></g></svg>